<?xml version="1.0" standalone="no"?>
<!DOCTYPE svg PUBLIC "-//W3C//DTD SVG 20010904//EN"
 "http://www.w3.org/TR/2001/REC-SVG-20010904/DTD/svg10.dtd">
<svg version="1.0" xmlns="http://www.w3.org/2000/svg"
 width="1393.000000pt" height="1393.000000pt" viewBox="0 0 1393.000000 1393.000000"
 preserveAspectRatio="xMidYMid meet">
<metadata>
Created by potrace 1.14, written by Peter Selinger 2001-2017
</metadata>
<g transform="translate(0.000000,1393.000000) scale(0.100000,-0.100000)"
fill="#000000" stroke="none">
<path d="M6689 13866 c-2 -2 -78 -6 -169 -10 -91 -3 -176 -8 -190 -10 -14 -2
-59 -7 -100 -11 -41 -4 -82 -8 -91 -10 -8 -1 -42 -6 -75 -9 -32 -4 -66 -9 -74
-11 -8 -2 -37 -6 -65 -10 -27 -3 -102 -15 -165 -26 -63 -12 -124 -22 -135 -24
-32 -4 -175 -35 -235 -50 -30 -8 -66 -16 -80 -19 -14 -2 -52 -12 -85 -21 -33
-9 -67 -18 -76 -20 -94 -20 -499 -146 -564 -174 -11 -5 -81 -32 -155 -60 -149
-57 -147 -56 -243 -100 -37 -17 -69 -31 -72 -31 -3 0 -88 -40 -188 -88 -235
-115 -415 -215 -660 -368 -238 -149 -220 -140 -392 -204 -334 -124 -444 -174
-569 -260 -138 -95 -139 -97 -130 -222 9 -125 8 -138 -19 -168 -13 -14 -43
-47 -68 -74 -92 -101 -265 -273 -285 -284 -17 -9 -34 -8 -74 4 -41 12 -58 13
-80 4 -34 -14 -39 -30 -47 -145 -3 -49 -11 -103 -18 -120 -10 -24 -72 -108
-163 -220 -51 -63 -268 -376 -339 -490 -152 -242 -244 -407 -358 -640 -269
-547 -459 -1112 -570 -1685 -37 -191 -46 -242 -49 -270 -2 -14 -11 -77 -20
-140 -24 -164 -24 -167 -31 -250 -4 -41 -8 -86 -10 -99 -26 -163 -26 -1004 -1
-1221 3 -19 7 -62 11 -95 3 -33 8 -73 10 -90 2 -16 7 -52 10 -80 16 -140 73
-460 115 -650 12 -50 22 -108 24 -130 1 -22 10 -53 18 -70 9 -16 41 -117 72
-223 81 -277 187 -567 309 -842 48 -109 227 -471 264 -535 10 -16 35 -58 55
-93 21 -35 38 -65 38 -67 0 -8 219 -355 230 -365 3 -3 23 -32 45 -65 37 -57
257 -353 302 -405 86 -102 218 -257 227 -266 6 -6 45 -49 86 -94 454 -502
1136 -1041 1715 -1355 39 -20 75 -41 80 -45 24 -19 382 -193 520 -253 351
-152 761 -292 1060 -362 141 -33 372 -85 395 -89 14 -2 93 -15 175 -29 137
-23 178 -30 285 -43 19 -2 49 -6 65 -8 17 -3 68 -8 115 -12 47 -3 94 -8 105
-10 92 -17 650 -24 945 -11 155 7 188 9 310 22 36 4 76 8 90 10 52 5 175 22
220 30 14 2 45 7 70 11 47 6 290 49 325 57 11 3 56 12 100 22 80 16 332 80
435 110 30 9 62 17 71 19 29 7 364 118 394 131 17 7 68 27 115 45 521 201
1065 497 1525 830 114 83 415 320 500 395 227 199 579 556 748 760 54 66 107
129 116 140 307 367 662 939 888 1430 78 169 95 210 158 370 73 184 195 548
219 650 10 42 38 122 49 139 8 12 14 38 15 59 1 20 17 110 36 200 19 89 40
189 45 222 6 33 13 71 16 85 8 40 26 152 30 185 1 17 8 66 14 110 6 44 13 107
17 140 3 33 7 76 9 95 28 249 28 1061 1 1280 -3 19 -8 62 -11 95 -3 33 -8 74
-10 90 -10 82 -17 129 -20 147 -3 11 -7 41 -10 67 -3 25 -9 71 -15 101 -5 30
-12 69 -15 85 -2 17 -7 41 -10 55 -2 14 -7 39 -10 55 -40 210 -130 556 -208
800 -22 72 -42 132 -42 135 -1 3 -5 12 -8 20 -3 8 -16 42 -27 75 -12 33 -25
69 -30 80 -5 11 -21 52 -35 90 -15 39 -35 88 -45 110 -10 22 -39 90 -65 150
-104 243 -273 563 -434 822 -42 68 -85 138 -96 156 -18 30 -168 248 -187 272
-5 6 -40 53 -80 105 -81 108 -131 173 -138 180 -3 3 -39 46 -80 95 -41 50 -77
92 -80 95 -46 43 -209 242 -214 262 -10 44 66 372 108 462 19 40 10 64 -22 61
-37 -4 -128 -28 -279 -75 -178 -56 -209 -63 -236 -49 -12 7 -24 15 -27 18 -3
4 -30 26 -60 51 -30 25 -57 47 -60 50 -3 3 -30 25 -60 50 -30 25 -57 47 -60
50 -8 8 -76 60 -175 134 -49 37 -97 73 -106 81 -9 7 -52 37 -95 66 -44 29 -81
55 -84 59 -10 12 -324 208 -430 268 -466 264 -921 460 -1440 621 -263 81 -780
193 -1045 226 -27 3 -63 8 -80 11 -54 8 -99 12 -225 23 -69 7 -145 14 -170 17
-49 6 -725 15 -731 10z"/>
</g>
</svg>
